#!OML:ASF H:\LiuWeirdWalks\Patient Classification 1\Patient 1\Session 1\male.ASF
:FULLY-SPECIFIED
:DEGREES
508
root 2.28027 17.9462 -23.4312 4.67823 -0.737029 -0.767635
lowerback 13.0299 -1.18907 -5.14423
upperback 3.42494 -2.13435 2.5448
thorax -3.39711 -1.04085 5.92735
lowerneck -22.6588 4.72791 7.66456
upperneck 14.6691 6.35885 -11.5611
head 8.96169 2.18821 -4.3307
rclavicle -6.75868e-015 2.10712e-014
rhumerus -6.4586 -29.2654 -10.9164
rradius 37.6593
rwrist -4.00601
rhand -21.5237 -3.56659
rfingers 7.12502
rthumb 4.86866 -33.4906
lclavicle -6.75868e-015 2.10712e-014
lhumerus -41.9843 34.039 29.1628
lradius 44.2549
lwrist 13.0951
lhand -19.355 -0.343132
lfingers 7.12502
lthumb 6.9625 29.5224
rfemur -27.3041 -9.74456 10.6748
rtibia 33.557
rfoot -6.26612 -19.7031
rtoes -8.94048
lfemur -7.80857 2.36932 -21.9679
ltibia 25.6893
lfoot -12.101 22.2461
ltoes -5.67262
509
root 2.28604 17.9411 -23.38 4.68691 -0.627246 -0.569203
lowerback 13.0661 -1.14334 -5.01782
upperback 3.46315 -2.05207 2.68993
thorax -3.38714 -1.00201 5.99831
lowerneck -22.5926 4.65156 7.67331
upperneck 14.4664 6.28683 -11.8049
head 8.88466 2.13522 -4.42582
rclavicle 6.16232e-015 -1.2921e-014
rhumerus -6.59026 -29.1952 -11.108
rradius 37.6803
rwrist -3.84389
rhand -21.6942 -3.58056
rfingers 7.12502
rthumb 4.70404 -33.5083
lclavicle 6.16232e-015 -1.2921e-014
lhumerus -41.8049 33.8814 28.8654
lradius 44.3086
lwrist 13.1565
lhand -19.3996 -0.41771
lfingers 7.12502
lthumb 6.91944 29.4492
rfemur -27.6253 -9.62279 10.4788
rtibia 32.6487
rfoot -5.69212 -19.7348
rtoes -9.03031
lfemur -7.5634 2.41675 -22.2062
ltibia 25.513
lfoot -12.1067 22.1927
ltoes -5.81947
510
root 2.29008 17.9358 -23.3278 4.70022 -0.49538 -0.381688
lowerback 13.0888 -1.10466 -4.88469
upperback 3.50763 -1.97748 2.8379
thorax -3.3623 -0.967661 6.06883
lowerneck -22.5656 4.58022 7.69921
upperneck 14.3037 6.2171 -12.0492
head 8.82884 2.08247 -4.52408
rclavicle -2.34566e-014 -3.18055e-015
rhumerus -6.73347 -29.1434 -11.308
rradius 37.7135
rwrist -3.7501
rhand -21.8268 -3.60092
rfingers 7.12502
rthumb 4.57601 -33.5315
lclavicle -2.34566e-014 -3.18055e-015
lhumerus -41.5849 33.7212 28.5998
lradius 44.3798
lwrist 13.256
lhand -19.4263 -0.512614
lfingers 7.12502
lthumb 6.8936 29.3551
rfemur -27.9228 -9.50058 10.2895
rtibia 31.7475
rfoot -5.13905 -19.7397
rtoes -9.12036
lfemur -7.32197 2.45379 -22.4224
ltibia 25.3404
lfoot -12.1261 22.1291
ltoes -5.94629
511
root 2.29235 17.9301 -23.2747 4.71389 -0.342769 -0.203107
lowerback 13.1079 -1.07309 -4.76814
upperback 3.53487 -1.91386 2.99935
thorax -3.3511 -0.937765 6.16531
lowerneck -22.4953 4.50996 7.74789
upperneck 14.1543 6.14839 -12.3103
head 8.77161 2.03115 -4.63211
rclavicle 4.27387e-015 -1.43125e-014
rhumerus -6.87553 -29.0705 -11.5067
rradius 37.7449
rwrist -3.66855
rhand -21.8773 -3.55754
rfingers 7.12502
rthumb 4.52726 -33.4892
lclavicle 4.27387e-015 -1.43125e-014
lhumerus -41.3661 33.5446 28.3491
lradius 44.4542
lwrist 13.3406
lhand -19.443 -0.614432
lfingers 7.12502
lthumb 6.87757 29.2539
rfemur -28.1966 -9.37044 10.1041
rtibia 30.8617
rfoot -4.64012 -19.7478
rtoes -9.2047
lfemur -7.07873 2.48167 -22.6178
ltibia 25.1696
lfoot -12.1547 22.0519
ltoes -6.06831
512
root 2.29315 17.9243 -23.2207 4.73483 -0.161773 -0.0134568
lowerback 13.1256 -1.04854 -4.65248
upperback 3.55347 -1.86001 3.14978
thorax -3.34733 -0.912161 6.2522
lowerneck -22.4463 4.43667 7.81
upperneck 14.036 6.0701 -12.5598
head 8.72727 1.97622 -4.74017
rclavicle -9.93923e-016 -7.95139e-016
rhumerus -7.04269 -29.0155 -11.7079
rradius 37.7687
rwrist -3.58418
rhand -21.8533 -3.43929
rfingers 7.12502
rthumb 4.55045 -33.3704
lclavicle -9.93923e-016 -7.95139e-016
lhumerus -41.1094 33.3411 28.1355
lradius 44.5541
lwrist 13.4201
lhand -19.4764 -0.663486
lfingers 7.12502
lthumb 6.84524 29.2059
rfemur -28.4535 -9.25275 9.89941
rtibia 30.0005
rfoot -4.20432 -19.7398
rtoes -9.33861
lfemur -6.84041 2.48831 -22.8169
ltibia 24.9986
lfoot -12.1744 21.9667
ltoes -6.19681
513
root 2.29243 17.9184 -23.1658 4.75763 0.0522531 0.181071
lowerback 13.1501 -1.03268 -4.54155
upperback 3.5598 -1.81842 3.29978
thorax -3.35837 -0.891755 6.34389
lowerneck -22.4206 4.36119 7.87288
upperneck 13.9517 5.98716 -12.7941
head 8.69714 1.91936 -4.8444
rclavicle -9.93923e-015 -9.54166e-015
rhumerus -7.22178 -28.978 -11.903
rradius 37.7843
rwrist -3.52193
rhand -21.7826 -3.29824
rfingers 7.12502
rthumb 4.61873 -33.2279
lclavicle -9.93923e-015 -9.54166e-015
lhumerus -40.8305 33.1194 27.9583
lradius 44.6649
lwrist 13.4645
lhand -19.5002 -0.699347
lfingers 7.12502
lthumb 6.82233 29.1707
rfemur -28.6841 -9.13172 9.67795
rtibia 29.167
rfoot -3.88255 -19.7501
rtoes -9.43208
lfemur -6.60247 2.4687 -23.0112
ltibia 24.8291
lfoot -12.1824 21.8718
ltoes -6.34272
514
root 2.29026 17.9124 -23.1101 4.78968 0.285184 0.372469
lowerback 13.173 -1.01139 -4.41776
upperback 3.55813 -1.7682 3.43823
thorax -3.37918 -0.866499 6.4147
lowerneck -22.3943 4.24901 7.90635
upperneck 13.8713 5.85144 -12.972
head 8.65853 1.84191 -4.93155
rclavicle 1.03368e-014 -1.82882e-014
rhumerus -7.46047 -28.9891 -12.0709
rradius 37.789
rwrist -3.45588
rhand -21.6699 -3.13387
rfingers 7.12502
rthumb 4.72753 -33.0611
lclavicle 1.03368e-014 -1.82882e-014
lhumerus -40.4691 32.868 27.8454
lradius 44.7766
lwrist 13.4851
lhand -19.5366 -0.711078
lfingers 7.12502
lthumb 6.78716 29.1601
rfemur -28.8999 -8.99936 9.44888
rtibia 28.3654
rfoot -3.6822 -19.7833
rtoes -9.55106
lfemur -6.37376 2.42856 -23.1944
ltibia 24.6627
lfoot -12.1707 21.7755
ltoes -6.51755
515
root 2.28664 17.9064 -23.0532 4.82529 0.536894 0.551845
lowerback 13.1872 -0.991577 -4.27827
upperback 3.56139 -1.71726 3.58129
thorax -3.39054 -0.841373 6.48082
lowerneck -22.4246 4.12991 7.89296
upperneck 13.8367 5.71169 -13.0979
head 8.64095 1.76237 -4.99395
rclavicle -9.74045e-015 -3.81667e-014
rhumerus -7.71328 -29.0648 -12.2151
rradius 37.7821
rwrist -3.39815
rhand -21.5292 -2.94543
rfingers 7.12502
rthumb 4.86339 -32.8696
lclavicle -9.74045e-015 -3.81667e-014
lhumerus -40.0669 32.613 27.7954
lradius 44.8968
lwrist 13.4902
lhand -19.5681 -0.727431
lfingers 7.12502
lthumb 6.75673 29.1448
rfemur -29.0923 -8.84536 9.21936
rtibia 27.5956
rfoot -3.59259 -19.8509
rtoes -9.69827
lfemur -6.14682 2.37533 -23.3555
ltibia 24.5019
lfoot -12.1452 21.6742
ltoes -6.72553
516
root 2.28144 17.9008 -22.9953 4.86494 0.799091 0.71847
lowerback 13.1905 -0.953152 -4.09423
upperback 3.58983 -1.63641 3.70376
thorax -3.37583 -0.802931 6.4934
lowerneck -22.5505 3.95564 7.80115
upperneck 13.8174 5.49347 -13.1096
head 8.62883 1.64959 -5.01477
rclavicle 1.59028e-015 -1.43125e-014
rhumerus -8.05879 -29.2814 -12.3119
rradius 37.7692
rwrist -3.33895
rhand -21.3672 -2.75855
rfingers 7.12502
rthumb 5.01977 -32.6791
lclavicle 1.59028e-015 -1.43125e-014
lhumerus -39.5046 32.3693 27.8511
lradius 45.0051
lwrist 13.4999
lhand -19.5629 -0.767313
lfingers 7.12502
lthumb 6.76176 29.1047
rfemur -29.2587 -8.6519 8.98434
rtibia 26.8582
rfoot -3.61557 -19.9524
rtoes -9.79401
lfemur -5.92498 2.30889 -23.4941
ltibia 24.3509
lfoot -12.1219 21.5721
ltoes -6.95047
517
root 2.27491 17.8952 -22.9362 4.90822 1.07655 0.885781
lowerback 13.1817 -0.922597 -3.91972
upperback 3.61375 -1.56646 3.83839
thorax -3.35689 -0.769863 6.52585
lowerneck -22.6485 3.8055 7.72573
upperneck 13.7763 5.30709 -13.1415
head 8.60963 1.55203 -5.04019
rclavicle -7.15625e-015 2.38542e-014
rhumerus -8.39275 -29.5342 -12.3798
rradius 37.758
rwrist -3.30032
rhand -21.2027 -2.5894
rfingers 7.12502
rthumb 5.17864 -32.5061
lclavicle -7.15625e-015 2.38542e-014
lhumerus -38.9615 32.1257 27.9402
lradius 45.115
lwrist 13.4861
lhand -19.5572 -0.771607
lfingers 7.12502
lthumb 6.7673 29.1002
rfemur -29.4032 -8.44512 8.73521
rtibia 26.1544
rfoot -3.66169 -20.0699
rtoes -9.949
lfemur -5.70533 2.23568 -23.6249
ltibia 24.209
lfoot -12.1056 21.459
ltoes -7.18865
518
root 2.26678 17.8896 -22.8764 4.95643 1.36763 1.04914
lowerback 13.1674 -0.899539 -3.74143
upperback 3.63905 -1.50555 3.9819
thorax -3.33202 -0.741471 6.56682
lowerneck -22.7661 3.68454 7.68222
upperneck 13.7442 5.15861 -13.212
head 8.60359 1.46922 -5.07947
rclavicle 3.97569e-016 7.95139e-015
rhumerus -8.69381 -29.899 -12.4356
rradius 37.7235
rwrist -3.25677
rhand -21.0357 -2.40777
rfingers 7.12502
rthumb 5.33989 -32.3205
lclavicle 3.97569e-016 7.95139e-015
lhumerus -38.4285 31.8807 28.0661
lradius 45.2332
lwrist 13.4762
lhand -19.5594 -0.749749
lfingers 7.12502
lthumb 6.76512 29.1222
rfemur -29.5289 -8.21123 8.47416
rtibia 25.492
rfoot -3.70774 -20.2089
rtoes -10.1142
lfemur -5.4895 2.15937 -23.7411
ltibia 24.0726
lfoot -12.0981 21.3333
ltoes -7.44126
519
root 2.25717 17.8838 -22.8154 5.0015 1.67397 1.21833
lowerback 13.1545 -0.892848 -3.61572
upperback 3.63027 -1.47154 4.159
thorax -3.33739 -0.724567 6.67959
lowerneck -22.7233 3.60861 7.71668
upperneck 13.633 5.071 -13.3971
head 8.55671 1.41485 -5.16087
rclavicle 6.36111e-015 -2.8625e-014
rhumerus -8.93543 -30.2285 -12.4638
rradius 37.6932
rwrist -3.29356
rhand -20.8904 -2.24718
rfingers 7.12502
rthumb 5.48015 -32.1563
lclavicle 6.36111e-015 -2.8625e-014
lhumerus -38.0246 31.5918 28.1813
lradius 45.3638
lwrist 13.4766
lhand -19.5312 -0.721774
lfingers 7.12502
lthumb 6.79242 29.1493
rfemur -29.6292 -7.96404 8.19257
rtibia 24.8773
rfoot -3.73637 -20.3834
rtoes -10.2571
lfemur -5.26534 2.08584 -23.8528
ltibia 23.9374
lfoot -12.1031 21.1898
ltoes -7.71058
520
root 2.24611 17.8779 -22.7534 5.0476 1.99576 1.40615
lowerback 13.1533 -0.898656 -3.51602
upperback 3.60155 -1.45698 4.34413
thorax -3.36644 -0.716018 6.82027
lowerneck -22.6209 3.56579 7.81736
upperneck 13.4917 5.02605 -13.6738
head 8.49963 1.37776 -5.27865
rclavicle 7.95139e-016 -1.43125e-014
rhumerus -9.13907 -30.5981 -12.477
rradius 37.6547
rwrist -3.37063
rhand -20.7838 -2.09628
rfingers 7.12502
rthumb 5.58304 -32.0027
lclavicle 7.95139e-016 -1.43125e-014
lhumerus -37.6862 31.2736 28.2976
lradius 45.4996
lwrist 13.5069
lhand -19.4998 -0.666898
lfingers 7.12502
lthumb 6.82271 29.2032
rfemur -29.7107 -7.71686 7.87988
rtibia 24.3191
rfoot -3.73565 -20.5794
rtoes -10.4211
lfemur -5.03674 2.0075 -23.9761
ltibia 23.8014
lfoot -12.1065 21.0371
ltoes -8.00414
521
root 2.23409 17.8716 -22.6898 5.09278 2.33187 1.6216
lowerback 13.1455 -0.914866 -3.44688
upperback 3.56352 -1.45958 4.53477
thorax -3.3982 -0.715573 6.98758
lowerneck -22.495 3.53444 7.94317
upperneck 13.3556 5.0024 -14.0111
head 8.44583 1.34696 -5.41913
rclavicle 3.4191e-014 1.74931e-014
rhumerus -9.28989 -31.0371 -12.4828
rradius 37.596
rwrist -3.46883
rhand -20.7605 -2.00544
rfingers 7.12502
rthumb 5.60554 -31.9113
lclavicle 3.4191e-014 1.74931e-014
lhumerus -37.3965 30.9504 28.4231
lradius 45.6307
lwrist 13.5431
lhand -19.4568 -0.590184
lfingers 7.12502
lthumb 6.8642 29.2785
rfemur -29.7734 -7.4846 7.52918
rtibia 23.8289
rfoot -3.73638 -20.7874
rtoes -10.5339
lfemur -4.7934 1.93283 -24.1213
ltibia 23.6535
lfoot -12.1108 20.867
ltoes -8.30008
522
root 2.22065 17.8649 -22.6257 5.14216 2.67796 1.86472
lowerback 13.1426 -0.924596 -3.39198
upperback 3.52582 -1.45599 4.71019
thorax -3.43323 -0.711807 7.14628
lowerneck -22.4616 3.47445 8.03988
upperneck 13.3164 4.94716 -14.3166
head 8.43458 1.29767 -5.55124
rclavicle -1.70955e-014 4.77083e-015
rhumerus -9.44989 -31.5962 -12.4682
rradius 37.5141
rwrist -3.52917
rhand -20.8223 -1.97521
rfingers 7.12502
rthumb 5.54595 -31.8826
lclavicle -1.70955e-014 4.77083e-015
lhumerus -37.0613 30.6253 28.5808
lradius 45.7379
lwrist 13.5866
lhand -19.4238 -0.476644
lfingers 7.12502
lthumb 6.89605 29.391
rfemur -29.8303 -7.26543 7.14409
rtibia 23.4177
rfoot -3.72535 -20.9925
rtoes -10.6321
lfemur -4.54234 1.86755 -24.2868
ltibia 23.4887
lfoot -12.1087 20.6732
ltoes -8.6024
